{
  "asset": {
    "generator": "Khronos glTF Blender I/O v3.2.40",
    "version": "2.0"
  },
  "scene": 0,
  "scenes": [
    {
      "name": "Scene",
      "nodes": [0]
    }
  ],
  "nodes": [
    {
      "mesh": 0,
      "name": "untitled.vox-0",
      "rotation": [0.7071068286895752, 0, 0, 0.7071067094802856],
      "translation": [0.6332906484603882, 0.012199291959404945, 0.57958984375]
    },
    {
      "mesh": 1,
      "name": "Cube",
      "rotation": [-1, 0, 0, 7.549790126404332e-8],
      "translation": [
        11.571120262145996, -1.910006046295166, -9.665536880493164
      ]
    }
  ],
  "materials": [
    {
      "doubleSided": true,
      "name": "fullrom",
      "pbrMetallicRoughness": {
        "baseColorTexture": {
          "index": 0,
          "texCoord": 3
        },
        "metallicFactor": 0
      }
    },
    {
      "doubleSided": true,
      "name": "palette.004",
      "pbrMetallicRoughness": {
        "baseColorTexture": {
          "index": 1,
          "texCoord": 3
        },
        "metallicFactor": 0
      }
    },
    {
      "doubleSided": true,
      "name": "palette.005",
      "pbrMetallicRoughness": {
        "baseColorTexture": {
          "index": 2,
          "texCoord": 3
        },
        "metallicFactor": 0
      }
    },
    {
      "doubleSided": true,
      "name": "palette.007",
      "pbrMetallicRoughness": {
        "baseColorTexture": {
          "index": 3,
          "texCoord": 3
        },
        "metallicFactor": 0
      }
    },
    {
      "doubleSided": true,
      "emissiveFactor": [0.6961318850517273, 1, 1],
      "name": "monitor",
      "pbrMetallicRoughness": {
        "baseColorFactor": [0, 0, 0, 1]
      }
    },
    {
      "doubleSided": true,
      "emissiveFactor": [0.6987334788600492, 1, 1],
      "name": "monitor2",
      "pbrMetallicRoughness": {
        "baseColorFactor": [0, 0, 0, 1]
      }
    }
  ],
  "meshes": [
    {
      "name": "untitled.vox-0",
      "primitives": [
        {
          "attributes": {
            "POSITION": 0,
            "NORMAL": 1,
            "TEXCOORD_0": 2,
            "TEXCOORD_1": 3,
            "TEXCOORD_2": 4,
            "TEXCOORD_3": 5
          },
          "indices": 6,
          "material": 0
        },
        {
          "attributes": {
            "POSITION": 7,
            "NORMAL": 8,
            "TEXCOORD_0": 9,
            "TEXCOORD_1": 10,
            "TEXCOORD_2": 11,
            "TEXCOORD_3": 12
          },
          "indices": 13,
          "material": 1
        },
        {
          "attributes": {
            "POSITION": 14,
            "NORMAL": 15,
            "TEXCOORD_0": 16,
            "TEXCOORD_1": 17,
            "TEXCOORD_2": 18,
            "TEXCOORD_3": 19
          },
          "indices": 20,
          "material": 2
        },
        {
          "attributes": {
            "POSITION": 21,
            "NORMAL": 22,
            "TEXCOORD_0": 23,
            "TEXCOORD_1": 24,
            "TEXCOORD_2": 25,
            "TEXCOORD_3": 26
          },
          "indices": 27,
          "material": 3
        },
        {
          "attributes": {
            "POSITION": 28,
            "NORMAL": 29,
            "TEXCOORD_0": 30,
            "TEXCOORD_1": 31,
            "TEXCOORD_2": 32,
            "TEXCOORD_3": 33
          },
          "indices": 34,
          "material": 4
        },
        {
          "attributes": {
            "POSITION": 35,
            "NORMAL": 36,
            "TEXCOORD_0": 37,
            "TEXCOORD_1": 38,
            "TEXCOORD_2": 39,
            "TEXCOORD_3": 40
          },
          "indices": 34,
          "material": 5
        }
      ]
    },
    {
      "name": "Cube.001",
      "primitives": [
        {
          "attributes": {
            "POSITION": 41,
            "NORMAL": 42,
            "TEXCOORD_0": 43
          },
          "indices": 44
        }
      ]
    }
  ],
  "textures": [
    {
      "sampler": 0,
      "source": 0
    },
    {
      "sampler": 0,
      "source": 1
    },
    {
      "sampler": 0,
      "source": 2
    },
    {
      "sampler": 0,
      "source": 3
    }
  ],
  "images": [
    {
      "mimeType": "image/png",
      "name": "untitled.vox-0",
      "uri": "untitled_vox-0.png"
    },
    {
      "mimeType": "image/png",
      "name": "untitled.vox-2",
      "uri": "untitled_vox-2.png"
    },
    {
      "mimeType": "image/png",
      "name": "untitled.vox-1",
      "uri": "untitled_vox-1.png"
    },
    {
      "mimeType": "image/png",
      "name": "untitled.vox-8",
      "uri": "untitled_vox-8.png"
    }
  ],
  "accessors": [
    {
      "bufferView": 0,
      "componentType": 5126,
      "count": 1555,
      "max": [0.30000001192092896, -1.7999999523162842, -0.30000001192092896],
      "min": [-2.0999999046325684, -3.4000000953674316, -4.300000190734863],
      "type": "VEC3"
    },
    {
      "bufferView": 1,
      "componentType": 5126,
      "count": 1555,
      "type": "VEC3"
    },
    {
      "bufferView": 2,
      "componentType": 5126,
      "count": 1555,
      "type": "VEC2"
    },
    {
      "bufferView": 3,
      "componentType": 5126,
      "count": 1555,
      "type": "VEC2"
    },
    {
      "bufferView": 4,
      "componentType": 5126,
      "count": 1555,
      "type": "VEC2"
    },
    {
      "bufferView": 5,
      "componentType": 5126,
      "count": 1555,
      "type": "VEC2"
    },
    {
      "bufferView": 6,
      "componentType": 5123,
      "count": 2922,
      "type": "SCALAR"
    },
    {
      "bufferView": 7,
      "componentType": 5126,
      "count": 1219,
      "max": [3.266709327697754, 0.7204101085662842, 0.11219938844442368],
      "min": [-4.733290672302246, -7.279589653015137, -0.2878006398677826],
      "type": "VEC3"
    },
    {
      "bufferView": 8,
      "componentType": 5126,
      "count": 1219,
      "type": "VEC3"
    },
    {
      "bufferView": 9,
      "componentType": 5126,
      "count": 1219,
      "type": "VEC2"
    },
    {
      "bufferView": 10,
      "componentType": 5126,
      "count": 1219,
      "type": "VEC2"
    },
    {
      "bufferView": 11,
      "componentType": 5126,
      "count": 1219,
      "type": "VEC2"
    },
    {
      "bufferView": 12,
      "componentType": 5126,
      "count": 1219,
      "type": "VEC2"
    },
    {
      "bufferView": 13,
      "componentType": 5123,
      "count": 2658,
      "type": "SCALAR"
    },
    {
      "bufferView": 14,
      "componentType": 5126,
      "count": 502,
      "max": [2.555231809616089, -1.9243080615997314, -2.246462106704712],
      "min": [1.855231761932373, -2.6243081092834473, -3.4464621543884277],
      "type": "VEC3"
    },
    {
      "bufferView": 15,
      "componentType": 5126,
      "count": 502,
      "type": "VEC3"
    },
    {
      "bufferView": 16,
      "componentType": 5126,
      "count": 502,
      "type": "VEC2"
    },
    {
      "bufferView": 17,
      "componentType": 5126,
      "count": 502,
      "type": "VEC2"
    },
    {
      "bufferView": 18,
      "componentType": 5126,
      "count": 502,
      "type": "VEC2"
    },
    {
      "bufferView": 19,
      "componentType": 5126,
      "count": 502,
      "type": "VEC2"
    },
    {
      "bufferView": 20,
      "componentType": 5123,
      "count": 870,
      "type": "SCALAR"
    },
    {
      "bufferView": 21,
      "componentType": 5126,
      "count": 536,
      "max": [2.785536289215088, -0.5335902571678162, -0.010542001575231552],
      "min": [-3.214463710784912, -4.533590316772461, -3.9105420112609863],
      "type": "VEC3"
    },
    {
      "bufferView": 22,
      "componentType": 5126,
      "count": 536,
      "type": "VEC3"
    },
    {
      "bufferView": 23,
      "componentType": 5126,
      "count": 536,
      "type": "VEC2"
    },
    {
      "bufferView": 24,
      "componentType": 5126,
      "count": 536,
      "type": "VEC2"
    },
    {
      "bufferView": 25,
      "componentType": 5126,
      "count": 536,
      "type": "VEC2"
    },
    {
      "bufferView": 26,
      "componentType": 5126,
      "count": 536,
      "type": "VEC2"
    },
    {
      "bufferView": 27,
      "componentType": 5123,
      "count": 1074,
      "type": "SCALAR"
    },
    {
      "bufferView": 28,
      "componentType": 5126,
      "count": 4,
      "max": [-1.6144636869430542, -4.333590507507324, -3.110541820526123],
      "min": [-2.714463710784912, -4.333590507507324, -3.810541868209839],
      "type": "VEC3"
    },
    {
      "bufferView": 29,
      "componentType": 5126,
      "count": 4,
      "type": "VEC3"
    },
    {
      "bufferView": 30,
      "componentType": 5126,
      "count": 4,
      "type": "VEC2"
    },
    {
      "bufferView": 31,
      "componentType": 5126,
      "count": 4,
      "type": "VEC2"
    },
    {
      "bufferView": 32,
      "componentType": 5126,
      "count": 4,
      "type": "VEC2"
    },
    {
      "bufferView": 33,
      "componentType": 5126,
      "count": 4,
      "type": "VEC2"
    },
    {
      "bufferView": 34,
      "componentType": 5123,
      "count": 6,
      "type": "SCALAR"
    },
    {
      "bufferView": 35,
      "componentType": 5126,
      "count": 4,
      "max": [0.3855363130569458, -4.333590507507324, -3.110541820526123],
      "min": [-0.9144636988639832, -4.333590507507324, -3.810541868209839],
      "type": "VEC3"
    },
    {
      "bufferView": 36,
      "componentType": 5126,
      "count": 4,
      "type": "VEC3"
    },
    {
      "bufferView": 37,
      "componentType": 5126,
      "count": 4,
      "type": "VEC2"
    },
    {
      "bufferView": 38,
      "componentType": 5126,
      "count": 4,
      "type": "VEC2"
    },
    {
      "bufferView": 39,
      "componentType": 5126,
      "count": 4,
      "type": "VEC2"
    },
    {
      "bufferView": 40,
      "componentType": 5126,
      "count": 4,
      "type": "VEC2"
    },
    {
      "bufferView": 41,
      "componentType": 5126,
      "count": 24,
      "max": [0.8770456314086914, 1.910006046295166, 1.6002097129821777],
      "min": [-0.8770456314086914, -1.910006046295166, -1.6002097129821777],
      "type": "VEC3"
    },
    {
      "bufferView": 42,
      "componentType": 5126,
      "count": 24,
      "type": "VEC3"
    },
    {
      "bufferView": 43,
      "componentType": 5126,
      "count": 24,
      "type": "VEC2"
    },
    {
      "bufferView": 44,
      "componentType": 5123,
      "count": 36,
      "type": "SCALAR"
    }
  ],
  "bufferViews": [
    {
      "buffer": 0,
      "byteLength": 18660,
      "byteOffset": 0
    },
    {
      "buffer": 0,
      "byteLength": 18660,
      "byteOffset": 18660
    },
    {
      "buffer": 0,
      "byteLength": 12440,
      "byteOffset": 37320
    },
    {
      "buffer": 0,
      "byteLength": 12440,
      "byteOffset": 49760
    },
    {
      "buffer": 0,
      "byteLength": 12440,
      "byteOffset": 62200
    },
    {
      "buffer": 0,
      "byteLength": 12440,
      "byteOffset": 74640
    },
    {
      "buffer": 0,
      "byteLength": 5844,
      "byteOffset": 87080
    },
    {
      "buffer": 0,
      "byteLength": 14628,
      "byteOffset": 92924
    },
    {
      "buffer": 0,
      "byteLength": 14628,
      "byteOffset": 107552
    },
    {
      "buffer": 0,
      "byteLength": 9752,
      "byteOffset": 122180
    },
    {
      "buffer": 0,
      "byteLength": 9752,
      "byteOffset": 131932
    },
    {
      "buffer": 0,
      "byteLength": 9752,
      "byteOffset": 141684
    },
    {
      "buffer": 0,
      "byteLength": 9752,
      "byteOffset": 151436
    },
    {
      "buffer": 0,
      "byteLength": 5316,
      "byteOffset": 161188
    },
    {
      "buffer": 0,
      "byteLength": 6024,
      "byteOffset": 166504
    },
    {
      "buffer": 0,
      "byteLength": 6024,
      "byteOffset": 172528
    },
    {
      "buffer": 0,
      "byteLength": 4016,
      "byteOffset": 178552
    },
    {
      "buffer": 0,
      "byteLength": 4016,
      "byteOffset": 182568
    },
    {
      "buffer": 0,
      "byteLength": 4016,
      "byteOffset": 186584
    },
    {
      "buffer": 0,
      "byteLength": 4016,
      "byteOffset": 190600
    },
    {
      "buffer": 0,
      "byteLength": 1740,
      "byteOffset": 194616
    },
    {
      "buffer": 0,
      "byteLength": 6432,
      "byteOffset": 196356
    },
    {
      "buffer": 0,
      "byteLength": 6432,
      "byteOffset": 202788
    },
    {
      "buffer": 0,
      "byteLength": 4288,
      "byteOffset": 209220
    },
    {
      "buffer": 0,
      "byteLength": 4288,
      "byteOffset": 213508
    },
    {
      "buffer": 0,
      "byteLength": 4288,
      "byteOffset": 217796
    },
    {
      "buffer": 0,
      "byteLength": 4288,
      "byteOffset": 222084
    },
    {
      "buffer": 0,
      "byteLength": 2148,
      "byteOffset": 226372
    },
    {
      "buffer": 0,
      "byteLength": 48,
      "byteOffset": 228520
    },
    {
      "buffer": 0,
      "byteLength": 48,
      "byteOffset": 228568
    },
    {
      "buffer": 0,
      "byteLength": 32,
      "byteOffset": 228616
    },
    {
      "buffer": 0,
      "byteLength": 32,
      "byteOffset": 228648
    },
    {
      "buffer": 0,
      "byteLength": 32,
      "byteOffset": 228680
    },
    {
      "buffer": 0,
      "byteLength": 32,
      "byteOffset": 228712
    },
    {
      "buffer": 0,
      "byteLength": 12,
      "byteOffset": 228744
    },
    {
      "buffer": 0,
      "byteLength": 48,
      "byteOffset": 228756
    },
    {
      "buffer": 0,
      "byteLength": 48,
      "byteOffset": 228804
    },
    {
      "buffer": 0,
      "byteLength": 32,
      "byteOffset": 228852
    },
    {
      "buffer": 0,
      "byteLength": 32,
      "byteOffset": 228884
    },
    {
      "buffer": 0,
      "byteLength": 32,
      "byteOffset": 228916
    },
    {
      "buffer": 0,
      "byteLength": 32,
      "byteOffset": 228948
    },
    {
      "buffer": 0,
      "byteLength": 288,
      "byteOffset": 228980
    },
    {
      "buffer": 0,
      "byteLength": 288,
      "byteOffset": 229268
    },
    {
      "buffer": 0,
      "byteLength": 192,
      "byteOffset": 229556
    },
    {
      "buffer": 0,
      "byteLength": 72,
      "byteOffset": 229748
    }
  ],
  "samplers": [
    {
      "magFilter": 9729,
      "minFilter": 9987
    }
  ],
  "buffers": [
    {
      "byteLength": 229820,
      "uri": "untitled.bin"
    }
  ]
}
